<svg id="Layer_1" data-name="Layer 1" xmlns="http://www.w3.org/2000/svg" viewBox="0 0 356.94 364.82"><defs><style>.cls-1,.cls-2{fill:#fff;}.cls-2{font-size:164.57px;font-family:FontAwesome, FontAwesome;}</style></defs><title>trump-logo2</title><path class="cls-1" d="M193.06,385.8C113.95,384.87,52,328,44.8,249.35c-.25-2.8-1.22-6.07-3-8.11-8.31-9.49-10.12-20.32-12.4-32.74-6.79-37.07,4.06-71.45,10.44-106.73,7.65-42.33,35.73-63.84,74.5-74.68,36.89-10.32,73.88-6.43,109.95,3.07,35.71,9.4,70.6,22,105.89,33C342,66.85,354,70.22,366,73.57c17.56,4.91,23.83,19.66,12.39,34-7.1,8.9-17.31,15.8-27.22,21.78-6.17,3.72-8.26,7.24-8.19,14.09q.47,45.52.09,91.05c-.65,72.32-49.87,133.47-119,147.62C213.93,384.19,203.42,384.61,193.06,385.8ZM55.43,219.94c10.78,14.5,10.76,14.5,13.34,33.66.49,3.66,1,7.33,1.76,11,10,49.48,56.66,101.81,135.1,96.64C261.28,357.53,312.2,310,317.78,250.56c3.29-35.07,1.4-70.62,1.79-106,0-.42-.76-.85-1.53-1.66-71.68,20.12-143.11,19-214.17-7-2.92,17.28-5.33,33.56-8.46,49.7C89.48,216.31,87.1,218.21,55.43,219.94ZM359.59,97.45c-15-5.16-26.93-9.33-38.93-13.41C295.2,75.4,270,65.71,244.17,58.47,207.1,48.09,169.49,40.83,130.5,47.24c-41.53,6.82-59.6,23-69.07,63.61-.54,2.29-1.2,4.57-1.56,6.89-3.38,21.94-6.93,43.85-9.88,65.84-.64,4.82-1.75,11.12,6.95,11.67,7.23.46,13.37,1.16,14.4-8.68.77-7.33,2.77-14.53,4-21.82,2.72-15.58,4.83-31.28,8.17-46.73,2.08-9.65,9.77-14,16.8-10.46,23.42,11.93,48.54,18.12,74.27,21.79,54,7.7,106.85,2.41,157.9-17.21C341.36,108.75,349.32,103.1,359.59,97.45Z" transform="translate(-27.23 -20.98)"/><text class="cls-2" transform="translate(95.83 289.46)"></text></svg>